<svg width="30" height="30" viewBox="0 0 30 30" fill="none" xmlns="http://www.w3.org/2000/svg">
<path d="M15 21.7031C14.75 21.7031 14.5156 21.6644 14.2969 21.5869C14.0781 21.5094 13.875 21.3762 13.6875 21.1875L6.93749 14.4375C6.56249 14.0625 6.38249 13.625 6.3975 13.125C6.4125 12.625 6.59249 12.1875 6.93749 11.8125C7.31249 11.4375 7.75812 11.2425 8.27437 11.2275C8.79062 11.2125 9.23562 11.3919 9.60937 11.7656L13.125 15.2813V1.87501C13.125 1.34376 13.305 0.898756 13.665 0.540006C14.025 0.181257 14.47 0.00125646 15 6.46551e-06C15.53 -0.00124353 15.9756 0.178757 16.3369 0.540006C16.6981 0.901256 16.8775 1.34626 16.875 1.87501V15.2813L20.3906 11.7656C20.7656 11.3906 21.2112 11.2106 21.7275 11.2256C22.2437 11.2406 22.6887 11.4363 23.0625 11.8125C23.4062 12.1875 23.5862 12.625 23.6025 13.125C23.6187 13.625 23.4387 14.0625 23.0625 14.4375L16.3125 21.1875C16.125 21.375 15.9219 21.5081 15.7031 21.5869C15.4844 21.6656 15.25 21.7044 15 21.7031ZM3.75 30C2.71875 30 1.83625 29.6331 1.1025 28.8994C0.368749 28.1656 0.00125 27.2825 0 26.25V22.5C0 21.9687 0.18 21.5237 0.54 21.165C0.899999 20.8062 1.345 20.6262 1.875 20.625C2.405 20.6237 2.85062 20.8037 3.21187 21.165C3.57312 21.5262 3.7525 21.9712 3.75 22.5V26.25H26.25V22.5C26.25 21.9687 26.43 21.5237 26.79 21.165C27.15 20.8062 27.595 20.6262 28.125 20.625C28.655 20.6237 29.1006 20.8037 29.4618 21.165C29.8231 21.5262 30.0025 21.9712 30 22.5V26.25C30 27.2812 29.6331 28.1644 28.8994 28.8994C28.1656 29.6344 27.2825 30.0012 26.25 30H3.75Z" fill="#F5F5FF"/>
</svg>
